<?xml version="1.0" encoding="UTF-8" standalone="no"?>
<!-- Created with Inkscape (http://www.inkscape.org/) -->

<svg
   width="270.93332mm"
   height="270.93301mm"
   viewBox="0 0 270.93332 270.93301"
   version="1.1"
   id="svg1"
   xml:space="preserve"
   inkscape:version="1.3.2 (091e20e, 2023-11-25, custom)"
   sodipodi:docname="polyglot_pivot_logo.svg"
   xmlns:inkscape="http://www.inkscape.org/namespaces/inkscape"
   xmlns:sodipodi="http://sodipodi.sourceforge.net/DTD/sodipodi-0.dtd"
   xmlns:xlink="http://www.w3.org/1999/xlink"
   xmlns="http://www.w3.org/2000/svg"
   xmlns:svg="http://www.w3.org/2000/svg"><sodipodi:namedview
     id="namedview1"
     pagecolor="#000000"
     bordercolor="#000000"
     borderopacity="0.25"
     inkscape:showpageshadow="2"
     inkscape:pageopacity="0.0"
     inkscape:pagecheckerboard="0"
     inkscape:deskcolor="#d1d1d1"
     inkscape:document-units="mm"
     inkscape:zoom="0.65834035"
     inkscape:cx="480.75437"
     inkscape:cy="497.46305"
     inkscape:window-width="1920"
     inkscape:window-height="974"
     inkscape:window-x="-11"
     inkscape:window-y="-11"
     inkscape:window-maximized="1"
     inkscape:current-layer="layer1" /><defs
     id="defs1"><color-profile
       name="Agfa-:-Swop-Standard"
       xlink:href="file:///C:/WINDOWS/system32/spool/drivers/color/RSWOP.icm"
       id="color-profile2" /></defs><g
     inkscape:label="Ebene 1"
     inkscape:groupmode="layer"
     id="layer1"
     transform="translate(-72.111822,-28.305329)"><path
       style="fill:#ffffff"
       d="m 72.111822,163.77198 c 0,-135.466651 0,-135.466651 135.466658,-135.466651 135.46666,0 135.46666,0 135.46666,135.466651 0,135.46666 0,135.46666 -135.46666,135.46666 -135.466658,0 -135.466658,0 -135.466658,-135.46666 z m 176.620308,73.85059 c 2.69078,-1.22225 3.40244,-3.13531 3.23134,-8.68631 -0.37658,-12.21694 -6.84848,-18.57654 -28.87654,-28.37546 -9.041,-4.02178 -8.30431,-3.78854 -9.96883,-3.15608 -7.04517,2.67696 -16.56041,2.75227 -24.12978,0.19099 -2.70575,-0.91556 -1.90142,-1.08747 -8.90425,1.90311 -8.66296,3.69955 -10.71082,4.63244 -14.67773,6.68635 -13.46543,6.97186 -18.51783,13.94164 -18.10129,24.97068 0.15494,4.10217 1.25783,6.22446 3.52031,6.7741 1.88143,0.45708 96.88044,0.15882 97.90677,-0.30738 z m -17.60219,-42.36608 c 10.65663,-2.72088 22.72972,-10.57704 25.45863,-16.56635 0.19289,-0.42336 0.94371,-0.80579 2.81246,-1.43254 39.03954,-13.09326 45.70242,-64.25776 11.36322,-87.258709 -18.04856,-12.089216 -42.80845,-9.684551 -59.28316,5.757544 -2.30146,2.157199 -2.36054,2.328191 -1.27712,3.696123 3.27823,4.139092 6.20196,10.793192 7.37838,16.792362 0.4737,2.41561 0.4737,2.41561 2.84169,3.69769 22.38022,12.11711 28.97618,42.27664 13.4685,61.58377 -1.27831,1.59151 -1.39097,1.83893 -1.26502,2.77812 0.10282,0.76676 -0.0447,1.43792 -0.5756,2.61852 -1.42011,3.15806 -3.03783,7.08576 -3.28062,7.96507 -0.29542,1.06991 -0.35343,1.06085 2.35864,0.3684 z m 17.59125,-40.58926 c -2.36543,-1.05132 -3.12673,-4.38596 -1.41964,-6.21831 3.02552,-3.24751 8.30815,0.44681 6.27765,4.39017 -0.9996,1.94129 -2.95111,2.67567 -4.85801,1.82814 z m 12.03441,-0.11706 c -3.09769,-1.64833 -2.65115,-6.25373 0.69727,-7.19122 4.55698,-1.27588 6.94639,5.11303 2.72807,7.29441 -1.01723,0.52603 -2.31641,0.48689 -3.42534,-0.10319 z m 12.83642,0.24114 c -1.74893,-0.71349 -2.81631,-2.98835 -2.26522,-4.82774 0.89885,-3.00006 4.52304,-3.76536 6.60457,-1.39463 2.67515,3.04683 -0.60254,7.74684 -4.33935,6.22237 z m -25.72833,-28.85674 c -7.49464,-1.96396 -11.05792,-9.87151 -7.60085,-16.86768 3.57916,-7.24326 13.33963,-8.84292 19.05894,-3.12361 8.56749,8.56749 0.25992,23.06195 -11.45809,19.99129 z m -43.22958,59.91417 c 24.44273,-3.58832 34.24479,-33.41778 16.63138,-50.61235 -13.26069,-12.94535 -34.80922,-10.79672 -44.97715,4.48473 -14.23875,21.39953 3.22322,49.81573 28.34577,46.12762 z m -39.12302,-7.35917 c -5.52941,-8.7552 -7.72809,-21.71526 -5.29798,-31.22875 0.26375,-1.03256 0.43798,-1.92131 0.38717,-1.975 -0.32651,-0.34503 -21.02608,2.28218 -30.34627,3.85157 -3.18257,0.53591 -3.09709,0.42741 -2.15785,2.73889 6.07452,14.9495 19.64533,25.59444 35.69379,27.9982 3.02988,0.45382 2.9321,0.5325 1.72114,-1.38491 z m -33.86802,-35.2069 c 4.83056,-0.79492 17.97678,-2.50618 25.6784,-3.34258 5.43777,-0.59055 5.43777,-0.59055 6.1908,-2.4208 0.41416,-1.00663 1.52643,-3.04229 2.4717,-4.52367 4.33061,-6.78671 2.82106,-10.65653 -4.22921,-10.84186 -11.71792,-0.30802 -22.61318,-2.78214 -31.204,-7.08587 -2.01836,-1.01113 -2.01836,-1.01113 -2.8194,1.02617 -3.32926,8.46737 -4.22498,16.95019 -2.65898,25.18139 0.63528,3.33916 0.55347,3.19146 1.61183,2.91012 0.4718,-0.12542 2.70329,-0.53173 4.95886,-0.9029 z m 49.86391,-24.49976 c 6.47134,-3.02892 12.79409,-4.30083 20.89934,-4.20418 4.93588,0.0589 4.64667,0.35573 3.29037,-3.3776 -2.0214,-5.56403 -9.78737,-16.359959 -11.15874,-15.512406 -0.14871,0.09191 -0.19212,0.04046 -0.0965,-0.114337 0.19284,-0.312025 -2.90948,-2.744502 -5.14766,-4.036199 -4.09599,-2.363863 -8.31434,-4.011144 -12.46972,-4.86946 -3.94256,-0.814358 -3.50484,-2.613346 -3.59956,14.793892 -0.0928,17.05296 -0.45744,15.5631 3.66226,14.96289 1.90616,-0.27771 1.91087,-0.22883 0.091,0.94478 -2.89765,1.86868 -3.26602,2.34637 -3.26602,4.23525 0,1.65057 0,1.65057 2.56964,0.0355 1.4133,-0.88828 3.76478,-2.17445 5.22552,-2.85815 z m -13.87933,-2.56977 c 6.8e-4,-0.40019 0.0305,-7.37999 0.0661,-15.51068 0.0649,-14.783067 0.0649,-14.783067 -2.05177,-14.606689 -12.90912,1.075692 -24.57259,8.26016 -32.65169,20.112809 -2.05101,3.00899 -2.08095,2.87593 0.96784,4.30213 8.5946,4.02049 18.41916,5.9787 32.01458,6.38109 1.63918,0.0485 1.65366,0.0426 1.65489,-0.67866 z"
       id="path1" /></g></svg>
